<?xml version="1.0" encoding="utf-8"?>
<!-- Generator: Adobe Illustrator 19.2.1, SVG Export Plug-In . SVG Version: 6.00 Build 0)  -->
<svg version="1.1" id="layer" xmlns="http://www.w3.org/2000/svg" xmlns:xlink="http://www.w3.org/1999/xlink" x="0px" y="0px"
	 viewBox="0 0 652 652" style="enable-background:new 0 0 652 652;" xml:space="preserve">
<style type="text/css">
	.st0{fill:#FFFFFF;}
	.st1{fill:#EF7E00;}
	.st2{fill:#F8B616;}
	.st3{fill:#CCB3D6;}
	.st4{fill:#7A81BE;}
	.st5{fill:#81CFF4;}
	.st6{fill:#0096D9;}
	.st7{fill:#FFD700;}
	.st8{fill:#A7CE58;}
	.st9{fill:#00A84D;}
	.st10{fill:#005AA1;}
</style>
<path class="st0" d="M708.4,571.4H-66.8v-500h775.1V571.4z"/>
<rect x="614.4" y="71.4" class="st1" width="93.9" height="55.5"/>
<rect x="614.4" y="126.9" class="st2" width="93.9" height="55.6"/>
<rect x="614.4" y="182.5" class="st3" width="93.9" height="55.6"/>
<rect x="614.4" y="238" class="st4" width="93.9" height="55.5"/>
<rect x="614.4" y="293.5" class="st5" width="93.9" height="55.6"/>
<rect x="614.4" y="349.1" class="st6" width="93.9" height="55.6"/>
<rect x="614.4" y="404.6" class="st7" width="93.9" height="55.5"/>
<rect x="614.4" y="460.2" class="st8" width="93.9" height="55.6"/>
<rect x="614.4" y="515.7" class="st9" width="93.9" height="55.6"/>
<rect x="-66.8" y="71.4" class="st10" width="681.2" height="500"/>
<g>
	<path class="st0" d="M241.2,360.8h-8.6l185.2,70.3C240.3,557.5-44.6,387.5,16.1,208.9C-28.2,373,225.5,503.7,358,425.2L224,360.8
		h-11.2l89.4,59.4c-118.3,35-271.9-70.1-271.9-179.9c0-82.9,92.5-134.6,237.6-81.8C129,97.4-13.5,140.7-14.6,260.9
		c-1.8,205.2,317.3,330.3,489,171.5L241.2,360.8z"/>
	<path class="st0" d="M307.4,181.5c-8-8.8-19.6-13.6-32.9-13.6c-25.8,0-47.8,19.3-50.2,43.9c-1.1,11.7,2.3,22.5,9.6,30.5
		c7.8,8.6,19.5,13.4,32.6,13.4c26.6,0,48.3-18.8,50.6-43.6C318.2,200.5,314.8,189.6,307.4,181.5 M267.2,247.5
		c-7.4,0-13.8-2.9-18.5-8.1c-5.9-6.5-8.6-16.4-7.5-28c1.9-20.6,15.3-35.2,32.5-35.2c7.5,0,13.9,3,18.7,8.2
		c5.9,6.6,8.6,16.3,7.6,27.6C298,232.5,284.2,247.5,267.2,247.5"/>
	<path class="st0" d="M346.1,176.9h6.1c2.2,0,7.8,0.3,11.2,4c1.9,2.1,2.9,5,2.9,8.6c0,0.7,0,1.4-0.1,2.1
		c-1.5,15.6-15.9,16.4-18.8,16.4h-4.3C343.3,206,345.9,178.7,346.1,176.9 M376.7,225.2c-2.7-8-8.8-11.7-14.1-13.5
		c2.2-0.4,3.5-0.7,5.9-1.7c7.6-3.2,12.9-9.6,13.7-18.6c0.1-0.7,0.1-1.4,0.1-2.1c0-5.9-2.4-11.2-6.8-14.7c-5.4-4.1-10.3-5.4-21.3-5.4
		h-27.6l-0.6,2.9c3.6,1.4,4.8,3,4,10.6l-5.6,58.5c-0.6,7.5-2.9,9.1-6,10.3l0.5,3l24.5,0.1l0.5-3c-1.7-0.6-2.8-1.1-3.2-2
		c-0.7-1.4-1.1-3.1-1.1-5.6c0-0.9,0.1-1.9,0.2-3c0,0,1.9-20.9,2.4-25.4h4.4c3.6,0,10.1,0.1,14.3,10.7l4.9,15.5
		c3.2,9.9,5.3,12.8,12,12.8l11.9,0l0.8-3c-2.5-0.7-3.9-1.2-5-2.7c-1.8-2.4-3.4-6.3-4.7-10.5l-1.8-5.7L376.7,225.2z"/>
	<path class="st0" d="M232.9,273.1h6.1c2.2,0,7.8,0.3,11.1,4c1.9,2.1,2.9,5,2.9,8.6c0,0.7,0,1.4-0.1,2.1
		c-1.5,15.6-15.9,16.4-18.8,16.4h-4.2C230.1,302.1,232.7,274.9,232.9,273.1 M263.6,321.3c-2.7-8.1-8.8-11.7-14.1-13.5
		c2.1-0.4,3.5-0.7,5.9-1.7c7.6-3.2,12.9-9.7,13.8-18.6c0.1-0.7,0.1-1.4,0.1-2.1c0-5.9-2.4-11.2-6.8-14.7c-5.4-4.1-10.3-5.4-21.3-5.4
		l-27.6,0l-0.6,3c3.6,1.4,4.8,3,4,10.6l-5.6,58.5c-0.6,7.6-2.9,9.2-6,10.3l0.5,3.1h24.4l0.5-3.1c-1.7-0.6-2.8-1.1-3.2-2
		c-0.7-1.4-1.1-3.1-1.1-5.6c0-1,0-2,0.1-3c0,0,1.9-20.9,2.4-25.4h4.4c3.6,0,10.1,0.1,14.3,10.7l4.9,15.6c3.2,9.9,5.3,12.8,12,12.8
		l11.9,0l0.8-3c-2.5-0.7-3.9-1.2-5-2.7c-1.8-2.4-3.4-6.3-4.7-10.6l-1.8-5.7L263.6,321.3z"/>
	<path class="st0" d="M469.6,216.2c0.5-4.8,1.7-6.5,5.5-8.4l-0.7-2.8l-21.3,0l-0.6,2.9c2.8,1.3,4.1,2.9,4.1,6.6c0,0.6,0,1.3-0.1,2
		c0,0-1.9,22.2-2.2,25.1c-0.3,0.2-0.6,0.3-0.6,0.3c-9.6,4.6-12.7,5.4-19.3,5.4c-9,0-16.7-3.1-21.8-8.7c-5.8-6.4-8.1-15.6-7.1-26.7
		c1.9-20.1,16.4-35.4,33.6-35.4c14,0,24.7,9.8,26.3,23.1l3.1,0l1.4-22.4l-0.7-0.5c-10.4-6.1-19.4-8.7-30.2-8.7
		c-26.5,0-47.6,18.6-49.9,44c-1.2,12.4,2.1,23.3,9.3,31.2c7.4,8.2,19,12.7,32.5,12.7c12.6,0,27.7-4.4,37.7-11l1.5-1l-0.8-1
		c-0.6-0.7-1.7-1.8-1.7-2.9c0-0.4,0-0.8,0.1-1.2C467.7,238.8,469.6,216.3,469.6,216.2"/>
	<path class="st0" d="M181.7,286.8c-0.8,8.1-7.7,13.8-16.9,13.8h-8.9c0.2-1.9,2.5-26.6,2.7-28.2h9c4.5,0,8.4,1.6,11.1,4.5
		c2.1,2.3,3.2,5.3,3.2,8.5C181.7,285.8,181.7,286.3,181.7,286.8 M156.3,308.1h9.4c7.3,0,13.1,2.2,16.6,6.1c2.4,2.7,3.7,6.2,3.7,10.1
		c0,0.7,0,1.3-0.1,1.9c-1,10.4-9.2,16.9-21.5,16.9H153C153.2,341.3,156.1,309.7,156.3,308.1 M166.4,350.9c7.9,0,12.6-0.7,17.5-2.9
		c3.5-1.5,6.6-3.5,9.3-6.3c4.1-4.3,6.3-8.8,6.9-14.3c0.1-0.8,0.1-1.5,0.1-2.2c0-9.8-5.8-17.7-15.6-20.8c-1.2-0.4-1.9-0.6-3.2-0.9
		c1.8-0.7,3.1-1.2,5.2-2.5c5.5-3.4,9.5-9.4,10.2-16.1c0.1-0.5,0.1-1,0.1-1.5c0-7.8-7.1-15.6-16.6-17.7c-3.3-0.7-6.2-1-11.8-1h-27.5
		l-0.3,2.8c2.3,0.6,3.6,1.7,3.6,6.2c0,1-0.1,2.2-0.2,3.5l-6,61.8c-0.1,1.4-0.3,2.2-0.5,3.2c-0.9,4.5-2.2,5.1-4.6,5.7l-0.2,2.9H166.4
		z"/>
	<path class="st0" d="M373.1,278.3l23.8,75.1c0,0,17-29.4,20-35.2c2.3,5.9,12.2,35.2,12.2,35.2l34.3-73.9c3.2-7,6.5-9.9,10.1-9.9
		c3.6,0,7.9,2.5,7.1,10.8l-5.3,56.1c-0.7,7.5-1.5,9.3-6.4,11.4l0.5,2.9l17.7,0.1l0.6-2.9c-2.1-0.9-2.8-1.5-3.4-2.6
		c-0.5-1.1-0.7-2-0.7-3.8c0-1.2,0.1-1.6,0.3-4c2.7-27.4,4.4-47,5.1-53.8c3.8,5.1,30.5,39.9,54,70.2l7.1-74c0.8-8.5,2.1-10,6.8-11.4
		l-0.4-3.1h-18.6l-0.6,2.9c2.3,1,3.1,1.8,3.5,2.9c0.5,1.2,0.6,3.3,0.6,5.8c0,0.9,0,1.9-0.1,2.8c0,0-2.8,30.1-3.7,40.3
		c-3.2-4.2-42.3-54.7-42.3-54.7l-42,0l-0.7,4.1c3.2,0.6,3.8,1.3,3.6,3.1c-0.1,0.8,0,0.8-1.1,3.1c0,0-15.7,34.2-21.2,46.1
		c-1.7-5.6-6.9-21.8-7.2-22.8c0.6-1.1,10.6-21,10.6-21c2.6-4.8,5.1-7.5,8-8.7l-0.4-3.9l-45.4,0l-1.4,3.8c2.8,1.7,4.7,3.2,6.3,8.8
		c0,0,7.2,24.1,8.4,28c-3.5,6.8-6.9,13-9.4,17.9c-1.9-6.1-13.5-42.9-13.5-42.9c-0.7-2.4-2.6-7.6-2.5-8.5c0.1-1.1,0.3-2.3,3-2.9
		l-0.2-3.9h-22.6l-1.3,3.5l0.2,0.2C371.1,271.9,371.7,274.5,373.1,278.3 M419.6,274c-0.5-2-0.2-4.8,4.6-4.8c4.7,0,5.6,2,4.6,4.5
		c-0.9,2-5.8,12.1-5.8,12.1S420.2,276,419.6,274"/>
	<path class="st0" d="M485.2,204.5l2.1-21.8c0.7-7.3-0.3-9.1-4.1-10.8l1.1-2.9h51.1l-1.2,12.8l-3,0.3c-0.6-2.2-1.2-3-2.3-3.6
		c-1.5-0.8-4.5-1.3-7.4-1.3h-18.6c-0.2,1.9-2.3,24.6-2.5,26.7h12.4c4.1,0,5.5-0.2,7.1-1.1c1.9-0.8,2.2-1.4,3.1-3.1l3,0.4l-1.6,15.8
		l-2.9,0.4c-0.3-1.5-1.6-2.8-2.6-3.2c-1.2-0.6-2.7-0.9-6.8-0.9h-12.4c-0.2,1.8-2.9,31.6-3.1,33.7h18.8c5.4,0,7.7-0.4,10.8-1.4
		c1.8-0.6,3.5-1.4,5.1-3.3l2.5,1.5l-3.8,11.6h-53.8l-0.6-2.8c4.1-1.7,5.4-3.4,6.1-10.7c0,0,2.5-26.8,2.7-29L485.2,204.5z"/>
	<path class="st0" d="M358.3,277.8c-7.9-8.8-19.6-13.6-32.8-13.6c-25.8,0-47.9,19.3-50.2,43.9c-1.1,11.7,2.3,22.6,9.6,30.5
		c7.8,8.6,19.5,13.4,32.6,13.4c26.6,0,48.3-18.8,50.6-43.6C369.2,296.8,365.8,285.9,358.3,277.8 M318.1,343.8
		c-7.4,0-13.8-2.9-18.4-8c-5.9-6.5-8.6-16.5-7.5-28c1.9-20.6,15.3-35.2,32.5-35.2c7.5,0,13.9,3,18.6,8.2c6,6.6,8.7,16.3,7.6,27.6
		C349,328.7,335.2,343.8,318.1,343.8"/>
	<path class="st0" d="M173,212.2c-4,0-14.6-0.5-14.6,3.7c0,0-2.1,24.2-2.1,24.2c-0.1,0.5-0.1,0.9-0.1,1.3c0,1.2,1.1,2.4,1.8,3.1
		l0.9,1l-1.5,1c-10.5,6.9-26.4,11.5-39.6,11.5c-14.1,0-26.3-4.7-34.1-13.4c-7.6-8.3-11-22.1-9.8-35.2c2.5-26.7,24.7-46.2,52.5-46.2
		c11.3,0,20.8,2.8,31.7,9.2l0.8,0.6l-1.5,22.7l-3.2,0c-1.8-12.7-13-23.5-27.6-23.5c-18.2,0-33.3,16.1-35.3,37.2
		c-1.1,11.6,1.4,23.7,7.4,30.4c5.4,5.9,13.4,9.2,22.9,9.2c6.9,0,10.2-0.9,20.2-5.7c0,0,0.3-0.2,0.7-0.3c0.3-3.1,2.4-27,2.4-27
		c0.1-0.7,0.1-1.4,0.1-2.1c0-3.9-1.4-5.6-4.3-7l0.7-3l32.7,0l2-21.3c0.7-7.3-0.3-9.1-4.1-10.8l1.2-2.9H224l-1.2,12.8l-3,0.3
		c-0.6-2.2-1.1-3-2.3-3.6c-1.6-0.8-4.5-1.3-7.4-1.3h-18.6c-0.2,1.9-2.3,24.6-2.5,26.7h12.3c4.1,0,5.5-0.2,7.1-1.1
		c1.8-0.8,2.2-1.4,3.1-3.1l3,0.4L213,216l-2.9,0.4c-0.3-1.5-1.5-2.9-2.6-3.2c-1.2-0.6-2.7-0.9-6.9-0.9h-12.3
		c-0.2,1.8-2.9,31.6-3.1,33.7h18.8c5.4,0,7.7-0.4,10.7-1.4c1.8-0.6,3.6-1.4,5.1-3.3l2.5,1.5l-3.8,11.6h-53.8l-0.6-2.8
		c4.1-1.7,5.4-3.4,6.1-10.7C170.3,240.8,172.8,214.4,173,212.2"/>
	<path class="st0" d="M365.7,379c-0.4,4.1,0.7,7.8,3.3,10.6c2.8,3,7,4.8,11.7,4.8c4.1,0,7.9-1,11.4-2.8l0.2-0.1l0-0.2
		c1.2-6.5,1.2-6.5,0.7-6.7l-0.4-0.1l-0.2,0.3c-3.3,5.7-8,6.3-9.9,6.3c-3.2,0-5.7-1-7.5-2.9c-2.1-2.2-3-5.8-2.6-9.7
		c0.7-7.1,5.6-11.8,12.2-11.8c2.4,0,6.7,0.8,8.6,6.2l0.1,0.4l0.4-0.1c0.4-0.1,0.4-0.1,0.6-7.1l0-0.3l-0.3-0.1
		c-3.2-1.6-6.4-2.3-10.1-2.3C373,363.4,366.5,371.2,365.7,379"/>
	<path class="st0" d="M399.6,378.6c-0.5,4.1,0.7,7.9,3.2,10.8c2.7,3.1,6.9,4.9,11.5,5c8.1,0.1,17-5.2,18.1-15.3
		c0.5-4.2-0.6-7.9-3.1-10.8c-2.8-3-7-4.9-11.4-5C407.2,363.2,400.5,371.1,399.6,378.6 M417.3,366.6c2.3,0,4.3,0.8,5.8,2.4
		c2,2.2,2.8,5.9,2.4,10.2c-0.7,7.1-4.8,11.8-10.5,11.8c-2.3,0-4.3-0.9-5.8-2.6c-1.3-1.4-2.7-3.8-2.7-8.1c0-0.6,0-1.4,0.1-2.1
		C407.4,371.2,411.6,366.6,417.3,366.6"/>
	<path class="st0" d="M440.7,363.9l-0.2,0.9c0.6,0.3,0.8,0.7,0.8,1.4l-2.4,25.3c-0.1,0.7-0.4,1.2-1.1,1.5l0.2,1h18.4l1.6-5.2
		l-0.9-0.4c-1.4,2.3-2.7,2.3-7.4,2.5c-0.1,0-3.9-0.2-3.9-0.2s-0.2,0-0.4,0c0.1-0.9,2.4-24.3,2.4-24.3c0.1-0.7,0.4-1.2,1-1.5
		l-0.2-0.9H440.7z M446.7,366.2L446.7,366.2L446.7,366.2z"/>
	<path class="st0" d="M466.5,363.9l-0.2,0.9c0.6,0.3,0.9,0.7,0.8,1.4l-2.5,25.3c-0.1,0.7-0.4,1.2-1.1,1.5l0.2,1h18.4l1.5-5.3
		l-0.8-0.4c-1.5,2.3-2.7,2.3-7.4,2.5c-0.1,0-4-0.2-4-0.2s-0.2,0-0.3,0c0.1-0.9,2.4-24.3,2.4-24.3c0.1-0.7,0.4-1.2,1-1.5l-0.2-0.9
		H466.5z"/>
	<path class="st0" d="M509.6,363.9h-17.2l-0.2,0.9c0.6,0.3,0.9,0.8,0.8,1.4l-2.5,25.3c-0.1,0.8-0.5,1.1-1.2,1.5l-1.6,1h20.6l1.5-5.3
		l-0.8-0.4c-1.6,2.4-3.1,2.4-6.4,2.5h-0.5c-1.9,0.1-4,0-5-0.2c0.1-0.8,1-10.9,1.1-11.7h6c0.3,0,0.8,0.5,0.9,0.9l1-0.1l0.5-4.6
		l-1-0.3c-0.2,0.4-0.8,0.9-1.2,0.9h-5.9c0.1-0.9,0.8-8.2,0.8-8.9c0.8,0,6.8,0.1,6.8,0.1c1.6,0.1,2.2,0.4,2.8,1.3l0.8,1.3l0.4-5.8
		H509.6z"/>
	<path class="st0" d="M515.7,379c-0.4,4.1,0.8,7.8,3.3,10.6c2.8,3,7.2,4.8,11.9,4.8c3.6,0,9.9-1.3,13.6-3.2l0.6-0.3l-0.5-0.5
		c-0.1-0.1-0.4-0.7-0.3-1.3l0.6-6.4c0.1-0.7,0.4-1.2,1.1-1.6l1.6-0.9h-11.2l1.5,0.9c0.5,0.3,0.7,0.7,0.7,1.2c0,0.1,0,0.2,0,0.3
		c0,0-0.6,6.7-0.7,7.2c-1.8,1-4,1.2-5.2,1.2c-3.2,0-5.7-1-7.5-2.9c-2-2.2-2.9-5.8-2.6-9.7c0.7-7.1,5.6-11.8,12.2-11.8
		c0.7,0,6.9,0.2,8.6,6.4l0.9-0.1l0.3-7.1l-0.3-0.1c-3.4-1.6-6.7-2.3-10.1-2.3C523.1,363.4,516.5,371.2,515.7,379"/>
	<path class="st0" d="M571.8,363.9h-17.3l-0.2,0.9c0.7,0.3,0.9,0.8,0.9,1.4l-2.5,25.3c-0.1,0.8-0.5,1.1-1.2,1.5l-1.7,1h20.7l1.5-5.3
		l-0.8-0.4c-1.7,2.4-3.1,2.4-6.5,2.5h-0.5c-1.9,0.1-4-0.1-5-0.2c0.1-0.8,1.1-10.9,1.2-11.7h6.1c0.3,0,0.8,0.5,1,0.9l0.9-0.1l0.4-4.6
		l-0.9-0.3c-0.2,0.4-0.9,0.9-1.2,0.9h-5.9c0.1-0.9,0.8-8.2,0.9-8.9c0.8,0,6.8,0.1,6.8,0.1c1.6,0.1,2.3,0.4,2.9,1.3l0.8,1.3l0.4-5.8
		H571.8z"/>
</g>
</svg>
